<?xml version="1.0" standalone="no"?>
<!DOCTYPE svg PUBLIC "-//W3C//DTD SVG 20010904//EN"
 "http://www.w3.org/TR/2001/REC-SVG-20010904/DTD/svg10.dtd">
<svg version="1.0" xmlns="http://www.w3.org/2000/svg"
 width="800.000000pt" height="800.000000pt" viewBox="0 0 800.000000 800.000000"
 preserveAspectRatio="xMidYMid meet">
<metadata>
Created by potrace 1.11, written by Peter Selinger 2001-2013
</metadata>
<g transform="translate(0.000000,800.000000) scale(0.100000,-0.100000)"
fill="#000000" stroke="none">
<path d="M5415 7990 c3 -5 13 -10 21 -10 8 0 13 -4 9 -9 -3 -6 -14 -8 -25 -6
-12 2 -18 0 -14 -6 3 -6 8 -8 12 -5 3 3 11 -2 19 -12 12 -16 13 -16 7 1 -6 17
-4 17 27 -1 19 -11 33 -25 32 -31 -2 -6 2 -11 8 -11 5 0 8 -4 4 -9 -3 -5 0
-13 6 -17 8 -5 9 -3 4 6 -5 8 -3 11 6 8 8 -3 14 -9 14 -14 0 -5 4 -15 9 -22 4
-7 5 -16 1 -20 -3 -3 -10 -1 -14 6 -4 7 -12 12 -17 10 -15 -4 -64 34 -57 45 3
6 1 7 -5 3 -7 -4 -12 -2 -12 5 0 7 -3 10 -6 6 -4 -3 -19 0 -35 9 -38 19 -37 4
1 -18 21 -12 28 -22 23 -34 -5 -14 -8 -13 -19 7 -7 13 -14 20 -14 14 0 -5 -5
-3 -10 5 -6 9 -10 10 -10 3 0 -6 4 -15 10 -18 5 -3 14 -14 20 -24 7 -14 4 -23
-12 -37 -12 -11 -18 -13 -14 -6 4 6 2 12 -3 12 -6 0 -11 -6 -11 -12 -1 -19
-76 -98 -93 -98 -7 0 -27 -15 -44 -32 -17 -18 -48 -48 -69 -67 -72 -62 -124
-111 -117 -111 3 0 -6 -11 -22 -24 -15 -13 -24 -29 -21 -35 4 -7 2 -10 -5 -9
-33 8 -152 -277 -158 -379 -1 -8 -41 -11 -143 -11 -212 1 -577 -20 -663 -37
-11 -2 -42 -7 -70 -10 -62 -8 -161 -23 -195 -30 -14 -3 -36 -7 -50 -10 -599
-111 -1151 -368 -1464 -681 -126 -126 -228 -279 -274 -409 -52 -147 -59 -266
-27 -427 21 -106 91 -315 126 -377 17 -31 126 -287 156 -366 17 -44 34 -89 38
-100 4 -11 9 -24 10 -30 2 -5 14 -46 28 -90 28 -87 43 -143 51 -190 3 -16 13
-61 21 -100 16 -71 21 -97 30 -150 3 -16 7 -41 10 -55 3 -14 7 -42 10 -64 3
-21 7 -41 9 -45 7 -10 18 -111 12 -111 -2 0 -17 5 -33 11 -15 6 -35 12 -43 14
-8 2 -34 8 -57 14 -87 24 -293 34 -373 20 -79 -15 -177 -44 -195 -59 -5 -4
-14 -9 -20 -11 -37 -9 -45 -12 -45 -20 0 -5 -5 -9 -11 -9 -37 0 -201 -148
-258 -233 -129 -191 -164 -412 -108 -677 54 -249 241 -515 497 -706 51 -38
254 -164 264 -164 2 0 55 -24 118 -54 63 -30 127 -58 142 -62 23 -5 26 -11 27
-48 4 -224 25 -346 96 -557 l36 -106 -47 -96 c-25 -52 -51 -108 -57 -124 -19
-46 -47 -163 -41 -163 4 0 -9 -10 -28 -21 -19 -12 -38 -26 -41 -31 -3 -5 -9
-3 -12 6 -3 8 -2 18 3 21 6 4 10 12 10 18 0 8 -3 7 -9 -2 -7 -11 -10 -9 -16 8
-3 12 -11 18 -17 15 -7 -5 -8 -2 -2 7 12 20 14 40 3 33 -5 -3 -6 -11 -3 -17 4
-7 3 -9 -1 -4 -5 4 -9 17 -10 28 -1 14 3 18 14 14 10 -4 7 3 -7 18 -17 18 -20
27 -11 32 8 5 10 4 5 -3 -4 -7 -2 -12 3 -12 16 0 13 16 -5 34 -14 15 -13 16 7
16 22 0 22 0 3 15 -14 11 -15 14 -4 15 13 0 13 2 0 9 -8 6 -19 7 -25 3 -5 -3
-4 2 4 11 11 14 11 18 -3 23 -9 3 -13 11 -9 17 3 5 1 7 -5 4 -5 -4 -8 -17 -6
-30 3 -12 -2 -7 -11 12 -12 26 -18 32 -27 23 -14 -14 -32 -16 -24 -4 3 5 -1 9
-8 9 -8 0 -12 -6 -10 -12 3 -6 -2 -12 -10 -12 -8 0 -13 4 -10 9 3 4 -4 8 -15
8 -12 0 -21 -5 -21 -11 0 -5 5 -7 12 -3 7 4 8 3 4 -5 -5 -7 -12 -9 -19 -3 -19
13 -59 6 -69 -12 -8 -14 -12 -15 -26 -4 -9 7 -13 8 -9 2 4 -7 0 -15 -9 -18
-10 -4 -13 -2 -9 7 4 6 0 4 -8 -5 -8 -10 -17 -15 -20 -11 -4 3 -7 0 -7 -7 0
-7 -3 -11 -6 -7 -3 3 -18 -5 -32 -19 -15 -13 -32 -24 -39 -24 -7 0 -13 -4 -13
-8 0 -5 -15 -24 -33 -43 -18 -19 -42 -47 -55 -63 -12 -16 -22 -24 -22 -18 0 6
-7 9 -15 6 -8 -4 -12 -11 -8 -18 4 -6 -1 -5 -10 3 -16 12 -17 12 -10 -5 6 -17
5 -18 -12 -4 -11 9 -16 10 -11 2 5 -8 -1 -12 -21 -13 -15 -1 -31 -1 -35 0 -11
1 -97 -89 -113 -118 -11 -23 -48 -139 -54 -173 0 -5 -1 -9 -2 -10 0 -2 -2 -34
-4 -73 -2 -45 1 -73 9 -77 7 -5 6 -8 -4 -8 -13 0 -13 -1 0 -10 13 -9 13 -11 0
-20 -13 -8 -13 -10 2 -10 11 0 15 -6 11 -20 -3 -12 0 -20 6 -20 7 0 9 5 5 12
-4 7 -3 8 5 4 9 -6 9 -11 0 -22 -9 -11 -7 -14 12 -15 22 0 23 -1 4 -9 -17 -8
-18 -9 -2 -11 33 -3 35 -4 44 -13 5 -5 3 -6 -4 -2 -16 9 -17 -13 -2 -34 10
-13 10 -13 6 1 -3 9 1 16 9 16 7 0 11 -4 8 -9 -3 -4 2 -5 10 -2 9 3 13 10 10
15 -3 5 0 9 6 9 6 0 8 5 4 12 -4 6 -3 8 3 5 5 -4 31 24 56 61 25 37 57 77 71
89 22 20 25 20 29 5 4 -15 5 -15 6 1 1 15 12 22 34 18 4 0 7 4 7 9 0 6 6 5 14
-2 8 -7 11 -17 8 -23 -3 -5 11 5 31 24 47 45 79 110 64 130 -9 12 -9 13 1 7 8
-5 12 2 13 26 1 32 3 48 8 58 2 3 4 13 6 23 6 30 42 82 55 79 7 -2 10 3 8 10
-4 9 6 13 32 14 30 0 37 -3 32 -15 -3 -11 1 -9 14 4 10 12 18 19 17 17 -1 -3
4 -17 12 -31 12 -25 13 -93 2 -181 -4 -34 12 -80 38 -104 19 -19 19 -20 0 -6
-20 15 -20 15 -1 -8 11 -12 25 -21 32 -18 8 3 11 -1 7 -10 -3 -7 0 -14 7 -14
6 0 8 -5 4 -12 -5 -7 -3 -8 7 -2 23 14 39 13 39 -2 0 -9 5 -12 10 -9 6 4 8 10
6 14 -3 4 2 8 10 8 10 0 11 -4 4 -11 -5 -5 -10 -14 -10 -20 0 -6 5 -5 12 2 16
16 31 15 22 -1 -6 -9 -3 -8 8 1 14 11 20 10 37 -7 12 -12 21 -19 21 -16 0 3 9
1 20 -5 11 -6 20 -17 20 -25 0 -8 4 -15 10 -15 5 0 7 8 3 18 -3 11 0 9 12 -6
12 -17 22 -21 38 -16 20 6 20 5 8 -10 -8 -9 -11 -19 -7 -23 3 -3 6 -2 6 4 0 5
7 10 15 10 8 0 15 -5 15 -10 0 -5 9 -7 21 -4 16 4 18 3 9 -8 -8 -10 -8 -15 1
-21 7 -4 9 -3 6 3 -4 6 -1 13 6 15 17 7 38 -2 32 -12 -3 -5 0 -12 6 -16 8 -4
9 -3 5 4 -4 7 -2 12 3 12 6 0 11 -5 11 -11 0 -8 6 -7 17 2 15 12 16 12 11 -2
-5 -13 -2 -16 15 -12 18 4 19 3 7 -6 -8 -6 -10 -11 -4 -11 6 0 17 7 24 15 7 8
18 15 25 15 17 0 47 -35 38 -45 -5 -4 -2 -5 5 -1 7 4 10 12 7 17 -4 5 -1 9 4
9 6 0 11 -4 11 -10 0 -6 9 -6 23 -2 26 10 57 5 57 -9 0 -5 5 -9 10 -9 12 0 9
22 -5 33 -6 5 -4 7 5 4 8 -2 15 -9 15 -14 0 -6 3 -15 8 -19 4 -4 7 0 7 9 0 9
4 17 10 17 5 0 7 -6 4 -13 -3 -9 4 -13 21 -13 14 0 25 6 25 13 0 7 5 13 11 13
5 0 8 -4 4 -9 -3 -5 -1 -12 5 -16 5 -3 10 1 10 9 0 10 6 13 15 10 8 -4 13 -9
10 -13 -2 -4 2 -8 10 -8 8 0 12 3 10 6 -2 4 12 11 31 17 30 10 32 9 21 -4 -10
-13 -9 -14 9 -4 16 8 24 8 33 -1 10 -9 12 -9 9 2 -2 7 3 16 10 18 7 3 12 -4
13 -19 0 -23 0 -23 9 -2 9 23 60 31 60 10 0 -8 2 -8 8 0 17 27 373 34 483 10
136 -30 547 -36 709 -11 47 7 105 15 155 21 28 3 58 8 68 10 40 9 65 14 117
25 77 15 267 65 358 94 155 50 242 93 487 235 151 89 248 130 305 130 25 0 30
-4 26 -17 -31 -109 -35 -134 -41 -273 -11 -251 82 -354 274 -304 220 57 549
341 666 574 15 30 31 62 35 71 9 18 31 92 37 124 25 136 22 241 -7 345 -8 25
-14 51 -16 57 -6 33 -72 153 -116 210 -26 35 -48 67 -48 71 0 4 15 15 33 24
231 115 293 148 380 205 160 103 245 170 348 273 173 174 218 298 156 433 -42
92 -125 157 -222 174 -93 17 -178 3 -410 -68 -148 -45 -402 -92 -393 -73 2 5
22 47 45 94 71 145 98 264 75 329 -10 27 -5 40 49 137 127 228 193 360 310
621 78 174 260 661 319 853 18 58 39 125 47 150 20 61 90 337 96 380 3 19 8
46 12 60 27 112 39 239 40 420 0 161 -9 284 -25 326 -5 13 -8 24 -5 24 6 0
-42 124 -67 173 -99 196 -293 386 -545 536 -130 77 -224 124 -343 172 -82 33
-95 42 -94 61 3 51 9 78 16 78 4 0 8 5 8 11 0 5 -6 7 -12 3 -9 -6 -9 -3 0 9
22 26 4 285 -23 340 -8 15 -10 25 -6 23 4 -3 8 1 8 9 0 8 -4 12 -8 10 -12 -8
-16 18 -15 106 1 73 -1 86 -14 81 -13 -5 -13 -3 -1 11 12 15 11 17 -8 17 -11
0 -21 5 -21 10 0 6 5 10 12 10 6 0 9 3 6 6 -3 3 -25 -4 -48 -16 -23 -12 -45
-19 -48 -15 -8 8 18 25 40 25 9 0 19 4 23 9 7 12 -63 -7 -89 -24 -12 -8 -46
-21 -76 -29 -92 -25 -100 -28 -100 -36 0 -4 -7 -11 -16 -14 -15 -6 -15 -4 -3
11 12 14 12 16 -1 11 -10 -4 -15 1 -17 16 -1 23 -16 60 -35 91 -80 124 -104
158 -149 208 -29 31 -80 80 -113 109 -44 37 -52 42 -27 15 19 -20 31 -37 25
-37 -16 1 -75 60 -69 70 3 5 0 12 -6 16 -8 4 -9 3 -5 -4 4 -7 2 -12 -4 -12
-13 0 -45 29 -45 41 0 4 -4 11 -9 16 -5 5 -6 3 -2 -4 4 -7 5 -13 2 -13 -11 0
-56 24 -56 29 0 4 -8 7 -17 8 -23 1 -75 13 -83 18 -17 11 -71 15 -65 5z m442
-237 c92 -102 106 -122 150 -198 44 -78 58 -109 43 -100 -6 3 -10 10 -10 15 0
20 -65 118 -74 113 -6 -3 -8 -3 -4 2 8 9 -22 65 -35 65 -4 0 -3 -10 3 -22 11
-22 11 -22 -5 -3 -8 11 -13 25 -10 33 2 7 1 11 -4 8 -4 -3 -22 14 -39 38 -17
23 -45 57 -61 75 -33 35 -36 41 -22 41 4 0 35 -30 68 -67z m159 -269 c31 -67
45 -118 27 -100 -5 4 -8 11 -8 14 -1 17 -30 91 -51 130 -12 23 -18 39 -12 36
6 -4 26 -40 44 -80z m-1049 -132 c-10 -10 -17 -24 -17 -30 0 -7 -5 -12 -11
-12 -5 0 -2 13 8 30 9 17 22 30 27 30 5 0 2 -8 -7 -18z m-2810 -6394 c-3 -7
-5 -2 -5 12 0 14 2 19 5 13 2 -7 2 -19 0 -25z m-372 -637 c3 -5 2 -12 -3 -15
-5 -3 -9 1 -9 9 0 17 3 19 12 6z m385 -15 c0 -3 -4 -8 -10 -11 -5 -3 -10 -1
-10 4 0 6 5 11 10 11 6 0 10 -2 10 -4z m701 -219 c-10 -9 -11 -8 -5 6 3 10 9
15 12 12 3 -3 0 -11 -7 -18z"/>
<path d="M5372 7861 c13 -17 27 -30 31 -30 5 -1 -2 12 -15 28 -13 17 -27 30
-31 30 -5 1 2 -12 15 -28z"/>
<path d="M528 1632 c-4 -15 -12 -20 -27 -17 -13 2 -21 -1 -21 -11 0 -8 -4 -14
-9 -14 -5 0 -13 -10 -17 -22 -3 -13 -13 -30 -21 -40 -11 -12 -11 -18 -3 -23 9
-6 9 -9 1 -15 -9 -5 -9 -14 -1 -34 8 -21 7 -26 -3 -20 -6 4 -4 -2 6 -14 19
-20 18 -21 -5 -16 -22 5 -22 5 -3 -7 26 -16 35 -31 27 -44 -3 -5 1 -4 10 3 13
10 18 10 24 1 5 -8 3 -9 -6 -4 -9 5 -11 4 -6 -4 4 -6 12 -9 17 -5 5 3 7 9 4
14 -3 5 -1 12 5 15 6 4 10 3 9 -2 -4 -24 4 -25 22 -3 11 14 18 20 15 13 -8
-15 30 -37 39 -23 4 6 3 9 -2 8 -7 -3 -17 10 -10 13 8 3 57 -26 57 -34 0 -6
10 -2 22 9 12 10 18 13 14 7 -9 -17 26 -17 42 -1 8 8 15 8 27 -2 12 -10 15
-10 15 3 0 8 7 18 16 21 12 5 14 3 8 -7 -5 -7 -2 -5 7 4 12 13 19 15 27 7 9
-9 10 -6 7 11 -2 12 0 19 6 15 24 -15 75 65 55 87 -8 9 -8 10 1 5 14 -8 12 41
-2 64 -5 8 -10 18 -11 23 -1 4 -2 9 -3 12 0 3 -12 -2 -25 -11 -14 -8 -27 -14
-30 -12 -2 2 -8 -1 -13 -6 -5 -5 -3 -6 5 -2 6 4 12 2 12 -3 0 -6 -9 -11 -20
-11 -11 0 -20 -7 -20 -15 0 -8 -5 -15 -11 -15 -5 0 -7 6 -3 13 4 6 4 9 -1 5
-4 -4 -15 -2 -23 5 -13 10 -14 9 -8 -2 6 -9 5 -12 -5 -9 -8 3 -25 -4 -39 -16
-13 -11 -19 -14 -12 -5 6 9 8 20 4 24 -4 5 -1 5 5 1 9 -5 11 -2 6 9 -4 11 -8
13 -13 6 -10 -17 -61 -8 -72 12 -7 13 -7 17 0 13 6 -4 10 2 9 13 -1 19 -2 19
-19 4 -10 -9 -18 -11 -18 -5 0 6 6 13 13 15 9 4 8 8 -3 16 -10 7 -16 7 -19 0
-1 -5 -9 -2 -15 7 -12 16 -13 15 -18 -4z m323 -45 c-6 -8 -7 -18 -3 -22 4 -5
1 -5 -6 -1 -10 6 -10 11 -1 22 6 8 14 14 16 14 3 0 0 -6 -6 -13z m24 -38 c-4
-5 -12 -9 -18 -8 -9 0 -8 2 1 6 6 2 9 10 6 15 -4 7 -2 8 5 4 6 -4 9 -12 6 -17z
m-135 -13 c0 -2 -8 -10 -17 -17 -16 -13 -17 -12 -4 4 13 16 21 21 21 13z"/>
<path d="M617 1584 c-12 -12 -8 -20 13 -21 11 -1 20 3 20 8 0 6 -4 8 -9 5 -5
-4 -11 -1 -13 5 -2 5 -7 7 -11 3z"/>
<path d="M849 1363 c-1 -5 -1 -12 0 -16 1 -4 -7 -7 -16 -5 -10 2 -18 -1 -18
-7 0 -5 -11 -21 -23 -33 -17 -17 -23 -32 -20 -52 3 -22 1 -27 -11 -22 -21 7
-12 -2 16 -17 16 -8 24 -8 29 1 5 7 2 8 -7 3 -8 -4 1 6 19 23 19 16 34 36 36
44 1 7 6 19 10 27 6 9 5 12 -2 7 -8 -4 -10 3 -7 24 2 16 2 30 -1 30 -2 0 -5
-3 -5 -7z"/>
<path d="M596 1352 c-3 -5 1 -9 9 -9 8 0 12 4 9 9 -3 4 -7 8 -9 8 -2 0 -6 -4
-9 -8z"/>
<path d="M701 1346 c-10 -12 -8 -13 8 -9 12 3 21 9 21 14 0 14 -16 11 -29 -5z"/>
<path d="M786 1012 c-6 -7 -24 -27 -39 -43 -15 -16 -25 -29 -22 -29 3 0 -3
-17 -14 -39 -11 -21 -21 -49 -23 -62 -2 -13 -7 -30 -11 -36 -5 -8 -3 -13 4
-13 9 0 9 -3 0 -14 -9 -11 -9 -15 1 -19 11 -4 11 -6 0 -6 -10 -1 -10 -6 -2
-21 9 -16 8 -19 -7 -14 -17 5 -17 5 0 -6 14 -9 15 -15 5 -33 -10 -19 -9 -20 4
-9 13 10 15 9 10 -13 -3 -16 0 -25 8 -25 10 0 10 -3 1 -14 -8 -10 -9 -16 -1
-21 6 -3 7 -11 4 -17 -4 -7 -2 -8 5 -4 9 6 9 12 -1 24 -10 15 -10 15 2 4 8 -7
15 -18 15 -25 1 -7 7 -11 13 -9 10 2 10 -3 2 -19 -7 -11 -13 -34 -16 -51 -3
-26 -1 -29 17 -25 17 5 18 3 8 -9 -10 -12 -10 -17 0 -27 10 -9 11 -8 6 5 -5
12 -2 16 12 13 10 -2 21 -4 25 -4 4 -1 5 -9 1 -18 -5 -15 -3 -15 11 2 13 15
16 16 13 4 -4 -13 0 -16 16 -12 18 4 19 3 7 -6 -20 -14 -4 -14 22 0 16 9 23 8
29 -2 7 -11 9 -11 9 -1 0 10 5 10 23 2 21 -11 21 -10 3 4 -10 9 -22 13 -27 11
-4 -3 -10 -1 -14 4 -3 6 4 8 17 4 13 -3 35 -6 50 -6 15 -1 24 -5 22 -9 -3 -5
-10 -6 -15 -3 -5 4 -9 1 -9 -4 0 -14 26 -14 52 0 12 6 18 7 14 1 -7 -12 15
-22 40 -17 11 2 22 4 25 4 3 1 16 10 29 21 13 11 29 20 37 20 8 0 11 5 8 10
-3 6 -2 10 3 10 17 0 67 58 95 110 40 73 42 110 10 134 -25 18 -25 18 -14 -3
7 -11 16 -21 22 -21 6 0 7 -4 4 -10 -3 -5 -11 -10 -16 -10 -6 0 -8 4 -5 9 3 5
0 13 -7 19 -12 10 -17 12 -38 12 -5 0 -7 5 -4 10 3 6 0 10 -7 10 -10 0 -10 2
1 9 9 6 1 8 -21 7 -19 -1 -44 -11 -56 -22 -14 -13 -33 -19 -56 -18 -20 1 -34
-2 -31 -6 4 -7 -14 -16 -53 -25 -6 -2 -10 1 -6 6 8 14 -26 23 -39 10 -6 -6
-16 -11 -21 -11 -6 0 -5 4 3 9 17 11 6 32 -13 25 -8 -3 -12 -15 -10 -27 2 -13
1 -16 -2 -7 -4 8 -12 21 -18 29 -8 11 -8 13 1 8 6 -4 15 -2 19 5 4 7 4 10 -1
6 -4 -4 -16 -3 -26 3 -15 8 -18 6 -13 -8 5 -16 5 -16 -6 0 -7 10 -9 21 -6 24
3 3 -4 19 -15 34 -11 16 -17 34 -14 39 4 6 3 10 -2 9 -22 -4 -25 3 -7 17 10 8
14 13 7 10 -6 -4 -14 -2 -18 4 -3 5 -1 10 5 10 7 0 10 6 7 14 -3 8 -1 17 6 20
7 2 4 5 -6 5 -14 1 -15 5 -7 21 5 11 14 29 20 39 6 14 6 21 -3 24 -9 3 -9 7 0
19 10 12 10 15 -3 15 -9 0 -21 -7 -28 -15z m20 -12 c0 -12 -4 -16 -9 -11 -5 5
-6 14 -3 20 10 15 12 14 12 -9z m28 -238 c3 -5 -1 -9 -9 -9 -8 0 -15 4 -15 9
0 4 4 8 9 8 6 0 12 -4 15 -8z m0 -38 c3 -8 2 -12 -4 -9 -6 3 -10 10 -10 16 0
14 7 11 14 -7z m347 -1 c13 -16 12 -17 -3 -4 -10 7 -18 15 -18 17 0 8 8 3 21
-13z"/>
<path d="M985 701 c-6 -11 9 -23 19 -14 9 9 7 23 -3 23 -6 0 -12 -4 -16 -9z"/>
<path d="M986 402 c-2 -4 4 -8 14 -8 10 0 16 4 14 8 -3 4 -9 8 -14 8 -5 0 -11
-4 -14 -8z"/>
<path d="M1867 302 c1 -8 3 -16 3 -18 0 -3 5 -2 10 1 6 3 10 11 10 16 0 6 -4
8 -9 5 -5 -4 -11 -3 -14 1 -2 5 -2 2 0 -5z"/>
<path d="M1715 289 c-3 -4 2 -6 10 -5 21 3 28 13 10 13 -9 0 -18 -4 -20 -8z"/>
<path d="M1780 252 c-30 -29 -40 -47 -40 -70 0 -17 4 -33 10 -37 5 -3 6 -13 3
-23 -6 -15 -5 -16 12 -2 10 8 16 10 12 3 -8 -14 20 -46 34 -38 5 4 9 0 9 -7 0
-10 2 -10 9 1 5 7 14 11 19 7 7 -4 9 2 7 15 -4 18 -2 19 12 7 12 -9 15 -9 9 0
-4 6 -3 12 3 12 5 0 8 9 6 20 -2 11 1 19 7 17 15 -3 27 45 15 61 -6 8 -6 12 1
12 5 0 13 7 16 16 5 14 4 15 -9 4 -14 -11 -14 -10 -6 14 8 20 8 26 -4 26 -7 0
-17 -5 -20 -10 -5 -8 -11 -7 -21 1 -11 9 -18 8 -31 -2 -11 -10 -14 -10 -9 -1
13 22 -2 13 -44 -26z m28 -157 c-3 -3 -9 2 -12 12 -6 14 -5 15 5 6 7 -7 10
-15 7 -18z"/>
<path d="M2630 100 c0 -7 6 -10 14 -7 8 3 17 2 20 -4 2 -5 3 -4 2 3 -3 17 -36
23 -36 8z"/>
</g>
</svg>
